<?xml version="1.0" encoding="utf-8"?>
<!-- Generator: Adobe Illustrator 27.8.1, SVG Export Plug-In . SVG Version: 6.00 Build 0)  -->
<svg version="1.1" id="Layer_1" xmlns="http://www.w3.org/2000/svg" xmlns:xlink="http://www.w3.org/1999/xlink" x="0px" y="0px"
	 viewBox="0 0 720 720" style="enable-background:new 0 0 720 720;" xml:space="preserve">
<style type="text/css">
	.st0{fill:none;}
</style>
<path d="M592.3,227.5l-13.8,12.4c22.8,39.1,34.6,83.7,34.1,130.1c-0.8,67.4-27.7,130.4-75.8,177.5c-48.1,47.1-111.6,72.6-178.8,71.7
	c-67.2-0.8-130.1-27.9-177-76.2c-46.9-48.3-72.3-111.9-71.5-179.3c0.5-44.6,12.5-87.2,34.5-124.6l-13.2-12.2l-0.7,0
	c-24.6,40.8-38.1,87.6-38.7,136.6c-0.9,72.3,26.4,140.7,76.7,192.5c50.3,51.7,117.7,80.7,189.7,81.7s140-26.4,191.6-76.9
	c51.6-50.5,80.5-118.2,81.3-190.5C631.3,319.2,617.9,270.2,592.3,227.5z"/>
<path d="M136,338.4"/>
<path d="M163.9,256.1"/>
<polygon points="159.7,423.2 159.7,418.8 141.4,418.8 141.4,446.6 159.7,446.6 159.7,442.2 146.2,442.2 146.2,434.5 157.3,434.5 
	157.3,430.2 146.2,430.2 146.2,423.2 "/>
<path d="M166.2,437.8v3.2c0,3.8,1.8,5.5,5.5,5.5h8.8c3.8,0,5.5-1.8,5.5-5.5v-4.2c0-3.8-2.3-5-5.7-5.7l-7.5-1.6
	c-1.3-0.3-1.9-0.7-1.9-2v-2.9c0-1.1,0.4-1.5,1.5-1.5h7c1.1,0,1.5,0.4,1.5,1.5v2.8h4.6v-3c0-3.8-1.8-5.5-5.5-5.5h-8.3
	c-3.8,0-5.5,1.8-5.5,5.5v3.8c0,3.8,2.4,5,5.7,5.7l7.5,1.7c1.3,0.3,1.8,0.7,1.8,1.9v3.3c0,1.1-0.4,1.5-1.5,1.5h-7.5
	c-1.1,0-1.5-0.4-1.5-1.5v-3H166.2z"/>
<polygon points="204.2,446.6 204.2,423.2 212.1,423.2 212.1,418.8 191.6,418.8 191.6,423.2 199.5,423.2 199.5,446.6 "/>
<rect x="214.5" y="441.1" width="5.5" height="5.5"/>
<path d="M501.5,429.6l-6.5,2.7c-3.5,1.5-5.7,2.6-5.7,5.7v8.6h19.1v-4.4H494v-3.4c0-1.1,0.8-1.4,2-1.9l6.5-2.7
	c3.6-1.5,5.7-2.6,5.7-5.7v-4.1c0-3.8-1.8-5.5-5.5-5.5h-7.5c-3.8,0-5.5,1.8-5.5,5.5v2.9h4.6v-2.7c0-1.1,0.4-1.5,1.5-1.5h6.3
	c1.1,0,1.5,0.4,1.5,1.5v3C503.5,428.7,502.8,429,501.5,429.6z"/>
<path d="M530.2,418.8h-9c-3.8,0-5.5,1.8-5.5,5.5V441c0,3.8,1.8,5.5,5.5,5.5h9c3.8,0,5.5-1.8,5.5-5.5v-16.6
	C535.8,420.6,534,418.8,530.2,418.8z M531,440.7c0,1.1-0.4,1.5-1.5,1.5h-7.6c-1.1,0-1.5-0.4-1.5-1.5v-16.1c0-1.1,0.4-1.5,1.5-1.5
	h7.6c1.1,0,1.5,0.4,1.5,1.5V440.7z"/>
<path d="M555.5,429.6l-6.5,2.7c-3.5,1.5-5.7,2.6-5.7,5.7v8.6h19.1v-4.4H548v-3.4c0-1.1,0.8-1.4,2-1.9l6.5-2.7
	c3.6-1.5,5.7-2.6,5.7-5.7v-4.1c0-3.8-1.8-5.5-5.5-5.5h-7.5c-3.8,0-5.5,1.8-5.5,5.5v2.9h4.6v-2.7c0-1.1,0.4-1.5,1.5-1.5h6.3
	c1.1,0,1.5,0.4,1.5,1.5v3C557.5,428.7,556.8,429,555.5,429.6z"/>
<path d="M316.1,337.8c0,6.5,3.2,11.7,8.2,15.6c2.7,2.2,5.6,4.1,8.5,5.9c4.5,2.6,10.3,7.7,15.5,3.3c2.8-2.4,4-6.5,5.1-9.9
	c0.7-2.1,1.2-4.7,2.2-6.6c0.4-0.7,0.9-2.1,1.2-0.5c0.6,3.5-0.2,7.1-0.4,10.5c-0.2,4-0.3,8.1-0.6,12.1c-0.8,9.3-3.3,18.6-12,23.5
	c-11.6,6.5-30.2,7.9-42.1,1.8c-6.9-3.6-12.7-9-18.1-14.6c-1.6-1.7-4.4,0.2-3.4,2.3c9.7,20.7,34,72.8,79.4,72.8s69.7-52.1,79.4-72.8
	c1-2.1-1.7-4-3.4-2.3c-5.4,5.5-11.1,11-18,14.6c-11.9,6.2-30.5,4.7-42.1-1.8c-8.7-4.9-11.2-14.1-12-23.5c-0.3-4-0.4-8.1-0.6-12.1
	c-0.1-3.5-0.9-7.1-0.4-10.5c0.3-1.7,0.8-0.2,1.2,0.5c1.1,2,1.5,4.5,2.2,6.6c1.2,3.4,2.3,7.4,5.1,9.9c5.1,4.5,11-0.6,15.5-3.3
	c3-1.7,5.8-3.7,8.5-5.9c4.9-4,8.2-9.2,8.2-15.6c0-13.5-4.1-43.4-43.6-43.6C320.3,294.3,316.1,324.3,316.1,337.8z M363.9,386.2
	c1.2,5.7,11.5,15.3,36.7,15.3c-0.4,3.6-0.7,5.2-1.3,8.7c0,0.1,0,0.2,0,0.2c-2.5,13.4-11.1,38.3-39.5,38.3
	c-28.3,0-36.9-24.9-39.5-38.3c0-0.1,0-0.2,0-0.2c-0.6-3.5-0.9-5.1-1.3-8.7c25.2,0,35.5-9.6,36.7-15.3c1.4,18.3,1.1,39.5,4.1,44.5
	C362.8,425.7,362.5,404.5,363.9,386.2z"/>
<path d="M334.6,372.7c0.3-2.5-1.4-4.7-3.9-5c-2.5-0.3-4.7,1.4-5,3.9c-0.3,2.5,1.4,4.7,3.9,5C332,376.9,334.3,375.1,334.6,372.7z"/>
<path d="M313.5,353.6c-2.5-0.3-4.7,1.4-5,3.9c-0.3,2.5,1.4,4.7,3.9,5c2.5,0.3,4.7-1.4,5-3.9C317.7,356.2,316,353.9,313.5,353.6z"/>
<path d="M313.5,381.7c-2.5-0.3-4.7,1.4-5,3.9c-0.3,2.5,1.4,4.7,3.9,5c2.5,0.3,4.7-1.4,5-3.9C317.7,384.3,316,382,313.5,381.7z"/>
<path d="M388.8,367.6c-2.5,0.3-4.2,2.6-3.9,5c0.3,2.5,2.6,4.2,5,3.9c2.5-0.3,4.2-2.6,3.9-5C393.5,369,391.2,367.3,388.8,367.6z"/>
<path d="M411,357.4c-0.3-2.5-2.6-4.2-5-3.9c-2.5,0.3-4.2,2.6-3.9,5c0.3,2.5,2.6,4.2,5,3.9C409.6,362.1,411.4,359.9,411,357.4z"/>
<path d="M406,381.7c-2.5,0.3-4.2,2.6-3.9,5c0.3,2.5,2.6,4.2,5,3.9c2.5-0.3,4.2-2.6,3.9-5C410.7,383.1,408.4,381.4,406,381.7z"/>
<path d="M400.3,280.1c1.4,3,2.9,6,4.3,8.9l4.4,8.7c2.9,5.8,5.7,11.5,8,17.4c2.3,5.9,4.2,11.8,5.4,17.9c0.6,3,1,6.1,1.2,9.2l0.1,2.3
	l0,2.3c0,1.5,0,3.1-0.1,4.7c-0.2,3.1-0.6,6.2-1.2,9.3c-0.6,3.1-1.4,6.2-2.3,9.2l0,0c-0.3,1,0.2,2.1,1.2,2.5c1.1,0.5,2.3,0,2.8-1
	c2.8-6.1,4.8-12.6,5.8-19.4c1-6.7,0.9-13.7,0-20.4c-1-6.8-2.8-13.4-5.1-19.7c-2.3-6.3-5.1-12.4-8.1-18.3c-1.5-3-3-5.9-4.4-8.7
	c-1.5-2.9-2.9-5.8-4.3-8.6c-2-4.2-4-8.4-5.5-12.6c2.5,0,5.3,0.3,7.7,1.6c0.6,0.4,1,0.6,1.1,0.7c5.8,3.6,12.4,6.2,19.3,6.1
	c6.6,0,10-5,15.1-8.4c1-0.7,6.1-2.7,5.5-4.4c-0.3-1-3.7-1.3-4.6-1.5c-1.8-0.5-3.7-1.1-5.1-2.4c-1.5-1.4-2.7-3.1-4.2-4.5
	c-2.8-2.6-6.1-5.4-9.8-6.3c-5.7-1.5-12.7-1-18.9,6.9c-0.2,0.2-0.3,0.4-0.5,0.6c-0.2,0.3-0.5,0.6-0.7,0.9c-0.1,0.2-0.3,0.4-0.4,0.6
	l-1.6,2.3c-0.7,1-1.5,1.9-2.7,3c-0.1,0.1-0.2,0.2-0.3,0.2c-0.1,0.1-0.2,0.2-0.3,0.2c-0.1,0.1-0.3,0.2-0.4,0.4
	c-0.1,0.1-0.3,0.2-0.5,0.4c-0.1-0.4-0.2-0.7-0.3-1.1c-1.7-5.8-2.3-11.8-1.2-17.7c0.6-2.9,1.5-5.8,2.8-8.6c1.3-2.8,3-5.5,4.8-8.1l0,0
	c0.3-0.4,0.3-1.1-0.1-1.5c-0.4-0.5-1.2-0.6-1.7-0.1c-2.5,2.2-4.8,4.7-6.8,7.5c-2,2.8-3.6,6-4.7,9.3c-0.1,0.4-0.3,0.8-0.4,1.3
	l-0.3,1.3l-0.2,0.6l-0.1,0.7l-0.3,1.3c-0.1,0.9-0.2,1.8-0.3,2.7c-0.1,0.9-0.1,1.8-0.1,2.7c-0.1,3.6,0.3,7.1,1.1,10.5
	C395,267.7,397.5,274,400.3,280.1z M427.6,253c2.6,0,4.8,2.1,4.8,4.8c0,2.6-2.1,4.8-4.8,4.8c-2.6,0-4.8-2.1-4.8-4.8
	C422.8,255.1,424.9,253,427.6,253z"/>
<path d="M308.2,266c0.1-0.1,0.5-0.3,1.1-0.7c2.4-1.3,5.2-1.6,7.7-1.6c-1.5,4.2-3.5,8.4-5.5,12.6c-1.4,2.9-2.9,5.7-4.3,8.6
	c-1.5,2.9-3,5.8-4.4,8.7c-2.9,5.9-5.7,11.9-8.1,18.3c-2.3,6.3-4.2,12.9-5.1,19.7c-0.9,6.8-1,13.7,0,20.4c1,6.8,3,13.3,5.8,19.4
	c0.4,1,1.5,1.5,2.5,1.2c1.1-0.3,1.8-1.5,1.4-2.6l0,0c-0.9-3.1-1.7-6.1-2.3-9.2c-0.6-3.1-1-6.2-1.2-9.3c-0.1-1.6-0.1-3.1-0.1-4.7
	l0-2.3l0.1-2.3c0.2-3.1,0.7-6.2,1.2-9.2c1.2-6.1,3.1-12.1,5.4-17.9c2.3-5.9,5.1-11.6,8-17.4l4.4-8.7c1.5-2.9,2.9-5.9,4.3-8.9
	c2.8-6,5.3-12.3,6.8-19.2c0.7-3.4,1.1-6.9,1.1-10.5c0-0.9-0.1-1.8-0.1-2.7c-0.1-0.9-0.2-1.8-0.3-2.7l-0.3-1.3l-0.1-0.7l-0.2-0.6
	l-0.3-1.3c-0.1-0.4-0.3-0.8-0.4-1.3c-1.1-3.4-2.7-6.5-4.7-9.3c-2-2.8-4.3-5.3-6.8-7.5c-0.4-0.4-1-0.4-1.5-0.1
	c-0.6,0.4-0.7,1.1-0.3,1.7l0,0c1.8,2.6,3.5,5.3,4.8,8.1c1.4,2.8,2.3,5.7,2.8,8.6c1.2,5.9,0.5,11.8-1.2,17.7
	c-0.1,0.4-0.2,0.7-0.3,1.1c-4-3.1-4.4-5.1-7.3-8.5c-6.2-7.9-13.3-8.4-18.9-6.9c-3.7,1-7.1,3.8-9.8,6.3c-1.5,1.4-2.7,3.1-4.2,4.5
	c-1.4,1.3-3.2,1.9-5.1,2.4c-0.8,0.2-4.2,0.5-4.6,1.5c-0.6,1.7,4.4,3.7,5.5,4.4c5.1,3.3,8.5,8.3,15.1,8.4
	C295.8,272.2,302.4,269.6,308.2,266z M287.2,257.7c0-2.6,2.1-4.8,4.8-4.8c2.6,0,4.8,2.1,4.8,4.8c0,2.6-2.1,4.8-4.8,4.8
	C289.3,262.5,287.2,260.3,287.2,257.7z"/>
<path d="M310,170.6c-10,1.4-21.1,10.5-33.4,24.1c-0.9-0.5-1.9-1-3-1.4c-1.7-0.6-3.6-1-5.5-0.9c-1.9,0.1-3.8,0.6-5.4,1.2l-1.2,0.5
	l-1.1,0.6c-0.4,0.2-0.7,0.4-1,0.6c-0.3,0.2-0.7,0.4-1,0.7c-1.4,1-2.6,2.1-3.6,3.2c-2.1,2.3-3.7,4.6-5.1,7c-2.8,4.7-5,9.4-7.2,14
	c-4.4,9.2-8.6,18.3-13.4,27c-2.4,4.4-4.9,8.7-7.4,12.9c-2.6,4.2-5.3,8.3-8.2,12.4c-2.8,4-5.8,8-8.9,11.9c-3.1,3.8-6.3,7.6-9.6,11.3
	c-1.6,1.7-3.6,3.9-5.3,6.2c-1.7,2.3-3.3,4.8-4.6,7.5c-1.3,2.7-2.3,5.7-2.8,8.9c-0.5,3.1-0.5,6.3-0.1,9.5c0.4,3.1,1.3,6.1,2.4,8.8
	c1.1,2.8,2.5,5.3,4,7.7c3,4.8,6.5,9,10.1,12.9c7.2,7.8,14.8,14.6,21.7,21.6c3.4,3.5,6.7,7.1,9.3,10.8c1.3,1.8,2.4,3.7,3.3,5.6
	c0.2,0.5,0.4,0.9,0.6,1.4c0.2,0.5,0.4,0.9,0.5,1.4l0.2,0.7l0.2,0.7l0.1,0.3l0.1,0.6l0.2,1.1c0.7,3,1.8,5.9,3.4,8.8l0.6,1.1l0.7,1
	l0.4,0.5l0.4,0.5c0.3,0.3,0.6,0.7,0.9,1c1.2,1.3,2.7,2.5,4.4,3.5c0.5,0.2,0.9,0.5,1.4,0.7c0.5,0.2,1,0.4,1.5,0.6
	c0.5,0.2,1.1,0.3,1.6,0.4c0.6,0.1,1.1,0.2,1.7,0.2c2.3,0.2,4.8-0.4,6.8-1.4c2-1,3.6-2.5,4.9-4c0.2-0.3,0.5-0.7,0.7-1
	c3.9,6.5,8.2,13,12.9,19.3c24.8,33.1,52.6,49.8,82.6,49.8c30,0,57.8-16.8,82.6-49.8c4.7-6.3,9-12.8,12.9-19.3c0.2,0.3,0.5,0.7,0.7,1
	c1.2,1.5,2.8,3,4.9,4c2,1.1,4.5,1.6,6.8,1.4c0.6-0.1,1.2-0.1,1.7-0.2c0.5-0.1,1.1-0.3,1.6-0.4c0.5-0.2,1-0.4,1.5-0.6
	c0.5-0.2,0.9-0.5,1.4-0.7c1.8-1,3.2-2.2,4.4-3.5c0.3-0.3,0.6-0.7,0.9-1l0.4-0.5l0.4-0.5l0.7-1l0.6-1.1c1.7-2.8,2.7-5.8,3.4-8.8
	l0.2-1.1l0.1-0.6l0.1-0.3l0.2-0.7l0.2-0.7c0.1-0.4,0.3-0.9,0.5-1.4c0.2-0.5,0.4-0.9,0.6-1.4c0.9-1.8,2-3.7,3.3-5.6
	c2.6-3.7,5.9-7.2,9.3-10.8c6.9-7.1,14.5-13.8,21.7-21.6c3.6-3.9,7.1-8.1,10.1-12.9c1.5-2.4,2.9-5,4-7.7c1.1-2.8,2-5.7,2.4-8.8
	c0.4-3.1,0.4-6.3-0.1-9.5c-0.5-3.1-1.5-6.1-2.8-8.9c-1.3-2.7-2.9-5.3-4.6-7.5c-1.7-2.3-3.8-4.5-5.3-6.2c-3.4-3.6-6.5-7.4-9.6-11.3
	c-3.1-3.9-6-7.8-8.9-11.9c-2.8-4-5.6-8.2-8.2-12.4c-2.6-4.2-5.1-8.5-7.4-12.9c-4.8-8.7-9-17.8-13.4-27c-2.2-4.6-4.4-9.3-7.2-14
	c-1.4-2.3-3-4.7-5.1-7c-1-1.1-2.2-2.2-3.6-3.2c-0.3-0.3-0.7-0.4-1-0.7c-0.3-0.2-0.7-0.4-1-0.6l-1.1-0.6l-1.2-0.5
	c-1.6-0.7-3.4-1.2-5.4-1.2c-1.9-0.1-3.9,0.3-5.5,0.9c-1.1,0.4-2.1,0.9-2.9,1.4c-12.3-13.6-23.4-22.7-33.4-24.1
	c-6.3-0.9-15.9,0.6-26.1,2.1c-8.4,1.2-17,2.5-23.7,2.5c-6.7,0-15.4-1.3-23.7-2.5C325.9,171.2,316.3,169.8,310,170.6z M385.1,183.4
	c9-1.3,18.2-2.7,23-2c6.9,1,16.2,8.9,26.5,20.4c-2.3,2.1-4.5,3.9-7.5,5.3l0,0c-0.3,0.2-0.6,0.5-0.7,0.8c-0.1,0.6,0.3,1.3,0.9,1.4
	c0.5,0.1,0.9,0.1,1.4,0.2c2.4,0.2,4.8-0.2,7.1-1c2.7-0.9,5.1-2.3,7.3-3.4c2.2-1.2,4.2-2.2,5.7-2.5c0.8-0.2,1.4-0.2,2-0.1
	c0.6,0.1,1.2,0.3,2,0.6c0.7,0.3,1.5,0.8,2.3,1.4l0.5,0.4c0.2,0.1,0.3,0.3,0.5,0.4l0.5,0.5c0.2,0.2,0.3,0.3,0.5,0.5
	c1.3,1.5,2.6,3.4,3.7,5.4c2.3,4.1,4.4,8.6,6.5,13.2c2.1,4.6,4.1,9.3,6.3,13.9c2.2,4.7,4.4,9.3,6.8,13.9c2.4,4.6,4.9,9.1,7.5,13.6
	c2.6,4.5,5.5,8.8,8.4,13.1c2.9,4.3,6,8.5,9.2,12.6c3.2,4.1,6.5,8.1,10,12c1.8,2.1,3.2,3.6,4.5,5.4c1.3,1.8,2.4,3.6,3.3,5.4
	c0.9,1.8,1.5,3.7,1.8,5.6c0.3,1.9,0.3,3.8,0,5.7c-0.5,3.8-2.3,7.8-4.7,11.6c-2.4,3.8-5.4,7.5-8.7,11c-6.6,7.2-14.1,13.9-21.4,21.4
	c-3.6,3.8-7.2,7.7-10.5,12.3c-1.6,2.3-3.1,4.8-4.4,7.6c-0.3,0.7-0.6,1.4-0.9,2.1c-0.3,0.7-0.5,1.5-0.7,2.2l-0.3,1.2l-0.3,1.2
	l-0.4,1.7c-0.5,2-1.1,3.8-2,5.4l-0.3,0.6l-0.4,0.5l-0.2,0.3l-0.2,0.2c-0.1,0.1-0.2,0.3-0.4,0.4c-0.5,0.5-1,1-1.5,1.2
	c-0.4,0.3-0.8,0.4-1,0.4c-0.2,0-0.3,0-0.5-0.1c-0.2-0.1-0.6-0.4-1-0.8c-0.2-0.3-0.4-0.5-0.6-0.8c-0.2-0.3-0.4-0.7-0.5-1
	c-0.7-1.5-1.2-3.5-1.4-5.6l-0.2-1.6c0-0.5-0.1-1.1-0.1-1.6c0-0.5,0-1.1,0-1.7v-0.8c0-0.3,0-0.6,0-0.9c0.1-5,0.4-9.9,0.7-14.9
	c0.8-9.9,2.2-19.6,4.3-29.3c1-4.8,2.3-9.6,3.6-14.4l1-3.6l1.1-3.6c0.2-0.6,0.4-1.2,0.5-1.8l0.5-2c0.4-1.3,0.7-2.6,1.1-3.9l0.8-4
	l0.4-2l0.3-2l0.5-4c0.1-1.3,0.2-2.7,0.3-4c0.2-2.7,0.2-5.3,0.2-8c0-1.3-0.1-2.6-0.2-4c-0.1-1.3-0.1-2.6-0.3-4
	c-1-10.5-3.4-20.8-7.2-30.6c-3.8-9.7-9-18.9-15.8-26.8c-0.5-0.5-1.2-0.7-1.9-0.3c-0.2,0.1-0.3,0.2-0.4,0.3c-0.4,0.5-0.5,1.1-0.2,1.7
	l0,0.1c0.6,1.1,1.2,2.2,1.8,3.3l0.9,1.6c0.3,0.6,0.5,1.1,0.8,1.7l1.7,3.3c0.5,1.1,1,2.3,1.5,3.4c1,2.2,1.8,4.6,2.7,6.9
	c0.5,1.1,0.8,2.3,1.1,3.5c0.4,1.2,0.8,2.3,1.1,3.5c2.6,9.5,4.1,19.2,4.5,29c0.3,9.7-0.7,19.4-3,28.6l-1,3.4l-0.5,1.7
	c-0.2,0.6-0.4,1.2-0.6,1.8l-1.2,3.7l-1.1,3.7l-0.6,1.9l-0.5,1.9c-0.3,1.2-0.7,2.5-1,3.7c-0.6,2.5-1.3,5-1.9,7.6
	c-2.4,10.1-4,20.4-4.9,30.8c-0.5,5.2-0.8,10.3-1,15.5c0,0.3,0,0.6,0,1l0,1.1c0,0.7,0,1.4,0,2.1c0,0.7,0,1.4,0.1,2.1l0.1,0.9
	c-4.9,8.8-10.6,18-17.2,26.8c-22.6,30.2-47.5,45.5-73.9,45.5c-26.4,0-51.3-15.3-73.9-45.5c-6.6-8.7-12.3-17.9-17.2-26.8l0.1-0.9
	c0-0.7,0.1-1.4,0.1-2.1c0-0.7,0-1.4,0-2.1l0-1.1c0-0.4,0-0.6,0-1c-0.2-5.1-0.5-10.3-1-15.5c-0.9-10.3-2.6-20.7-4.9-30.8
	c-0.6-2.5-1.2-5-1.9-7.6c-0.3-1.3-0.7-2.5-1-3.7l-0.5-1.9l-0.6-1.9l-1.1-3.7l-1.2-3.7c-0.2-0.6-0.4-1.2-0.6-1.8l-0.5-1.7l-1-3.4
	c-2.4-9.2-3.3-18.9-3-28.6c0.3-9.7,1.8-19.5,4.5-29c0.3-1.2,0.7-2.3,1.1-3.5c0.4-1.2,0.7-2.4,1.1-3.5c0.9-2.3,1.6-4.7,2.7-6.9
	c0.5-1.1,0.9-2.3,1.5-3.4l1.7-3.3c0.3-0.6,0.5-1.1,0.8-1.7l0.9-1.6c0.6-1.1,1.2-2.2,1.8-3.3l0-0.1c0.3-0.6,0.2-1.2-0.2-1.7
	c0-0.1-0.1-0.1-0.2-0.2c-0.6-0.5-1.6-0.5-2.1,0.2c-6.7,7.9-11.9,17.1-15.7,26.8c-3.8,9.8-6.2,20.1-7.2,30.6c-0.1,1.3-0.2,2.6-0.3,4
	c-0.1,1.3-0.2,2.6-0.2,4c0,2.6-0.1,5.3,0.2,8c0.1,1.3,0.1,2.7,0.3,4l0.5,4l0.3,2l0.4,2l0.8,4c0.3,1.3,0.7,2.6,1.1,3.9l0.5,2
	c0.2,0.6,0.4,1.2,0.5,1.8l1.1,3.6l1,3.6c1.4,4.8,2.6,9.6,3.6,14.4c2.1,9.7,3.5,19.5,4.3,29.3c0.4,4.9,0.6,9.9,0.8,14.9
	c0,0.3,0,0.6,0,0.9v0.8c0,0.6,0,1.1,0,1.7c0,0.5,0,1.1-0.1,1.6l-0.2,1.6c-0.3,2.1-0.7,4.1-1.4,5.6c-0.2,0.4-0.3,0.8-0.5,1
	c-0.2,0.4-0.4,0.6-0.6,0.8c-0.4,0.4-0.7,0.7-1,0.8c-0.2,0.1-0.3,0.1-0.5,0.1c-0.2,0-0.6-0.1-1-0.4c-0.4-0.3-1-0.7-1.5-1.2
	c-0.1-0.1-0.2-0.3-0.4-0.4l-0.2-0.2l-0.2-0.3l-0.4-0.5l-0.3-0.6c-0.9-1.5-1.6-3.4-2-5.4l-0.4-1.7l-0.3-1.2l-0.3-1.2
	c-0.2-0.8-0.5-1.5-0.7-2.2c-0.3-0.7-0.6-1.4-0.9-2.1c-1.3-2.8-2.8-5.2-4.4-7.6c-3.2-4.6-6.8-8.6-10.5-12.3
	c-7.3-7.5-14.8-14.2-21.4-21.4c-3.3-3.6-6.3-7.2-8.7-11c-2.4-3.8-4.2-7.7-4.7-11.6c-0.3-1.9-0.3-3.8,0-5.7c0.3-1.9,0.9-3.8,1.8-5.6
	c0.9-1.8,2-3.7,3.3-5.4c1.3-1.8,2.7-3.3,4.5-5.4c3.5-3.9,6.8-7.9,10-12c3.2-4.1,6.3-8.3,9.2-12.6c2.9-4.3,5.7-8.7,8.4-13.1
	c2.6-4.5,5.2-9,7.5-13.6c2.4-4.6,4.6-9.2,6.8-13.9c2.2-4.7,4.2-9.3,6.3-13.9c2.1-4.6,4.1-9.1,6.5-13.2c1.2-2,2.4-3.9,3.7-5.4
	c0.2-0.2,0.3-0.4,0.5-0.5l0.5-0.5c0.2-0.2,0.3-0.3,0.5-0.4l0.5-0.4c0.8-0.5,1.6-1.1,2.3-1.4c0.7-0.3,1.4-0.5,2-0.6
	c0.6-0.1,1.2-0.1,2,0.1c1.5,0.3,3.5,1.3,5.7,2.5c2.2,1.2,4.6,2.5,7.3,3.4c2.2,0.8,4.7,1.2,7.1,1c0.5,0,0.9-0.1,1.4-0.2
	c0.4-0.1,0.7-0.3,0.9-0.7c0.3-0.6,0-1.3-0.6-1.6l0,0c-3-1.4-5.2-3.2-7.5-5.3c10.3-11.4,19.6-19.4,26.5-20.4c0.8-0.1,1.8-0.2,2.9-0.2
	c5.1,0,12.7,1.1,20,2.2c8.8,1.3,17.8,2.6,25.3,2.6C367.3,186,376.3,184.7,385.1,183.4z"/>
<path d="M494.3,547c-0.8,3,0.9,6.1,4,7.1c0.8,0.2,1.7,0.3,2.5,0.3c2.3-0.2,4.3-1.6,5.2-3.7c2.4-5.5,3.7-11.5,3.7-17.4
	c0.1-5.4-0.8-11.1-2.7-17.3c-1.7-5.1-3.9-10.1-6.8-15.4c-2.4-4.4-5.3-8.9-8.8-13.9c-2.2-3.2-4.6-6.4-6.6-9.2l-9.5-13.2
	c-0.6-0.9-1.3-1.9-2.1-3.1c-2.3-3.6-5-7.9-6.6-12.3c-0.4-0.9-0.7-1.9-0.9-3c-0.3-1-0.4-2-0.5-2.9c-0.2-1.8-0.1-3.7,0.4-5.6l0.1-0.2
	c0.6-2.6-0.8-5.2-3.4-6.2c-0.7-0.3-1.4-0.4-2.1-0.4c-2.1,0-4.1,1.1-5.1,3c-1.6,3-2.6,6.3-2.9,9.6c-0.1,1.6-0.1,3.2,0,4.9
	c0.1,1.5,0.4,3,0.7,4.5c0.5,2.6,1.4,5.3,2.8,8.5c0.6,1.5,1.4,3,2.1,4.4C435.1,489,398.7,503,359.8,503c-38.9,0-75.4-14.1-97.8-37.6
	c0.7-1.4,1.4-2.8,2-4.3c1.4-3.2,2.2-5.9,2.8-8.5c0.3-1.5,0.6-3,0.7-4.6c0.1-1.8,0.1-3.4,0-4.9c-0.3-3.3-1.3-6.6-2.9-9.6
	c-1.4-2.5-4.5-3.6-7.3-2.6c-2.5,1-4,3.6-3.4,6.2l0,0.2c0.4,1.9,0.6,3.9,0.4,5.6c-0.1,0.9-0.2,1.8-0.5,2.9c-0.3,1.1-0.5,2-0.9,3
	c-1.7,4.5-4.3,8.8-6.6,12.3c-0.8,1.2-1.5,2.2-2.1,3.1l-9.4,13.1c-2.1,2.9-4.5,6.2-6.7,9.3c-3.5,5-6.3,9.6-8.8,13.9
	c-2.9,5.3-5.2,10.4-6.8,15.4c-1.9,6.2-2.8,11.8-2.7,17.2c0.1,5.9,1.3,11.9,3.7,17.4c0.9,2,2.9,3.5,5.2,3.7c0.9,0.1,1.7,0,2.5-0.3
	c3.1-1,4.9-4.1,4-7.1l-0.1-0.5c-1.1-4.2-1.5-8.5-1.1-12.7c0.4-4.3,1.4-8.7,3.1-13c1.5-4,3.5-8,6.4-12.9c2.7-4.6,5.7-8.9,8.4-12.6
	c1.9-2.8,4-5.6,5.8-8c1.2-1.6,2.4-3.3,3.6-4.9c26,25.1,65.6,40,107.5,40.3v6.2c-17.3,0.8-31.1,15.2-31.1,32.7
	c0,18,14.7,32.7,32.7,32.7c18,0,32.7-14.7,32.7-32.7c0-17.5-13.8-31.8-31.1-32.7v-6.2c41.5-0.5,80.7-15.3,106.5-40.2
	c1.2,1.6,2.3,3.2,3.5,4.8c1.9,2.6,3.9,5.3,5.8,8.1c2.6,3.7,5.7,8.1,8.4,12.6c2.9,4.8,4.9,8.9,6.4,12.9c1.7,4.3,2.7,8.7,3.1,13
	c0.3,4.3-0.1,8.5-1.1,12.7L494.3,547z M331.1,561.5c0-16.1,13.1-29.2,29.2-29.2c16.1,0,29.2,13.1,29.2,29.2
	c0,16.1-13.1,29.2-29.2,29.2C344.2,590.7,331.1,577.6,331.1,561.5z"/>
<path d="M365.5,577.2c1.7-0.8,3.3-1.9,4.6-3.4c1.3-1.4,2.4-3.1,3.1-5c0.8-1.9,1.1-3.8,1.1-5.9c0-1.3-0.2-2.5-0.5-3.7
	c-0.4-1.1-0.9-2.2-1.7-3.1c-0.8-0.9-1.9-1.6-3.2-2.1c-1.4-0.5-3-0.8-4.9-0.8h-4.2v-8.8h-8v33.9h8.2
	C361.9,578.4,363.7,578,365.5,577.2z M359.7,560.1h2.6c0.5,0,0.9,0,1.3,0.1c0.4,0.1,0.8,0.2,1.2,0.4c0.4,0.2,0.8,0.6,1,1
	c0.3,0.5,0.4,1.1,0.4,1.9c0,0.9-0.2,1.9-0.5,2.8c-0.3,0.9-0.7,1.8-1.3,2.5c-0.6,0.8-1.3,1.4-2.1,1.9c-0.8,0.5-1.7,0.8-2.6,0.9V560.1
	z"/>
<g>
	<ellipse class="st0" cx="360.2" cy="366.5" rx="222.5" ry="217.7"/>
	<path d="M201.1,214l-22-6.1l-4.5,4.9l15,13.7l-11,12.1l-45-41l24-26.4c5.4-5.9,10.8-6.2,16.7-0.8l11.7,10.7c4.9,4.5,5.9,9,3,13.9
		l23.2,6.7L201.1,214z M173.9,194.4c0.8-0.9,0.8-1.4-0.1-2.2l-8.4-7.6c-0.9-0.8-1.4-0.8-2.2,0.1l-8.9,9.8l10.7,9.7L173.9,194.4z"/>
	<path d="M216.4,125.4l7.7,11.2l-21.8,15l5.4,7.8l17.3-11.9l7.6,11l-17.3,11.9l6.2,9l21.8-15l7.7,11.2l-35.3,24.2l-34.5-50.2
		L216.4,125.4z"/>
	<path d="M263.9,119.1l17.8,43.5l-15.1,6.2l-17.8-43.5l-14.1,5.8l-5.3-12.9l43.3-17.8l5.3,12.9L263.9,119.1z"/>
	<path d="M332.4,150.2l-13.6-18.4l-6.6,1.1l3.4,20.1l-16.1,2.7l-10.1-60.1l35.2-5.9c7.9-1.3,12.3,1.8,13.6,9.7l2.6,15.6
		c1.1,6.6-0.9,10.7-6.2,12.8l14.1,19.6L332.4,150.2z M323.2,118.1c1.2-0.2,1.5-0.6,1.3-1.8l-1.9-11.2c-0.2-1.2-0.6-1.5-1.8-1.3
		l-13,2.2l2.4,14.2L323.2,118.1z"/>
	<path d="M354.4,87.8l16.4,0.3l-1,60.9l-16.4-0.3L354.4,87.8z"/>
	<path d="M430.5,95.6l-2.3,13.4l-26.1-4.4l-1.6,9.4l20.7,3.5l-2.2,13.2l-20.7-3.5l-1.8,10.7l26.1,4.4l-2.3,13.4l-42.2-7.1l10.1-60
		L430.5,95.6z"/>
	<path d="M455.2,169.4l-17.2-7.1l6.3-63.3l16.2,6.7l-7.2,44.6l26.4-36.7l15.8,6.5L455.2,169.4z"/>
	<path d="M544,153.3l-7.8,11.1l-21.6-15.3l-5.5,7.7l17.1,12.1l-7.8,10.9l-17.1-12.1l-6.3,8.9l21.6,15.3l-7.8,11.1l-34.9-24.8
		l35.2-49.7L544,153.3z"/>
	<path d="M535.1,231.6l8.4-21.2l-4.4-5l-15.2,13.5L513,206.6l45.6-40.4l23.6,26.7c5.3,6,5,11.4-1,16.7l-11.9,10.5
		c-5,4.4-9.6,4.9-14.1,1.5l-9.1,22.4L535.1,231.6z M557.5,206.7c0.8,0.9,1.3,0.9,2.2,0.1l8.5-7.5c0.9-0.8,0.9-1.3,0.1-2.2l-8.8-9.9
		l-10.8,9.6L557.5,206.7z"/>
</g>
<g>
	<path d="M584.5,424.6c0-1-0.5-1.5-1.5-1.5h-6.5c-1,0-1.5,0.5-1.5,1.5v7.8c1.6-1.9,3.3-3.3,7.8-3.3c5,0,6.8,1.8,6.8,5.6v6.4
		c0,3.8-1.8,5.6-5.6,5.6h-8.2c-3.8,0-5.6-1.8-5.6-5.6v-16.8c0-3.8,1.8-5.6,5.6-5.6h7.8c3.8,0,5.6,1.8,5.6,5.6v2.5h-4.8V424.6z
		 M575.1,440.9c0,1.1,0.4,1.5,1.5,1.5h6.8c1.1,0,1.5-0.4,1.5-1.5v-6c0-1.1-0.4-1.5-2.7-1.5c-3.5,0-5.3,0.6-7.1,1.7V440.9z"/>
</g>
<g>
</g>
<g>
</g>
<g>
</g>
<g>
</g>
<g>
</g>
<g>
</g>
</svg>
